<svg width="400" height="285" viewBox="0 0 400 285" fill="none" xmlns="http://www.w3.org/2000/svg">
<path d="M5.6223 259.68C5.6223 255.76 6.41564 252.33 8.00231 249.39C9.58897 246.403 11.759 244.093 14.5123 242.46C17.3123 240.827 20.4156 240.01 23.8223 240.01C27.1823 240.01 30.099 240.733 32.5723 242.18C35.0456 243.627 36.889 245.447 38.1023 247.64V240.64H44.5423V279H38.1023V271.86C36.8423 274.1 34.9523 275.967 32.4323 277.46C29.959 278.907 27.0656 279.63 23.7523 279.63C20.3456 279.63 17.2656 278.79 14.5123 277.11C11.759 275.43 9.58897 273.073 8.00231 270.04C6.41564 267.007 5.6223 263.553 5.6223 259.68ZM38.1023 259.75C38.1023 256.857 37.519 254.337 36.3523 252.19C35.1856 250.043 33.599 248.41 31.5923 247.29C29.6323 246.123 27.4623 245.54 25.0823 245.54C22.7023 245.54 20.5323 246.1 18.5723 247.22C16.6123 248.34 15.049 249.973 13.8823 252.12C12.7156 254.267 12.1323 256.787 12.1323 259.68C12.1323 262.62 12.7156 265.187 13.8823 267.38C15.049 269.527 16.6123 271.183 18.5723 272.35C20.5323 273.47 22.7023 274.03 25.0823 274.03C27.4623 274.03 29.6323 273.47 31.5923 272.35C33.599 271.183 35.1856 269.527 36.3523 267.38C37.519 265.187 38.1023 262.643 38.1023 259.75ZM58.597 234.41C57.3837 234.41 56.357 233.99 55.517 233.15C54.677 232.31 54.257 231.283 54.257 230.07C54.257 228.857 54.677 227.83 55.517 226.99C56.357 226.15 57.3837 225.73 58.597 225.73C59.7637 225.73 60.7437 226.15 61.537 226.99C62.377 227.83 62.797 228.857 62.797 230.07C62.797 231.283 62.377 232.31 61.537 233.15C60.7437 233.99 59.7637 234.41 58.597 234.41ZM61.677 240.64V279H55.307V240.64H61.677ZM78.9036 246.87C80.0236 244.677 81.6102 242.973 83.6636 241.76C85.7636 240.547 88.3069 239.94 91.2936 239.94V246.52H89.6136C82.4736 246.52 78.9036 250.393 78.9036 258.14V279H72.5336V240.64H78.9036V246.87ZM112.227 279.63C109.287 279.63 106.65 279.14 104.317 278.16C101.984 277.133 100.14 275.733 98.7868 273.96C97.4335 272.14 96.6868 270.063 96.5468 267.73H103.127C103.314 269.643 104.2 271.207 105.787 272.42C107.42 273.633 109.544 274.24 112.157 274.24C114.584 274.24 116.497 273.703 117.897 272.63C119.297 271.557 119.997 270.203 119.997 268.57C119.997 266.89 119.25 265.653 117.757 264.86C116.264 264.02 113.954 263.203 110.827 262.41C107.98 261.663 105.647 260.917 103.827 260.17C102.054 259.377 100.514 258.233 99.2068 256.74C97.9468 255.2 97.3168 253.193 97.3168 250.72C97.3168 248.76 97.9002 246.963 99.0668 245.33C100.234 243.697 101.89 242.413 104.037 241.48C106.184 240.5 108.634 240.01 111.387 240.01C115.634 240.01 119.064 241.083 121.677 243.23C124.29 245.377 125.69 248.317 125.877 252.05H119.507C119.367 250.043 118.55 248.433 117.057 247.22C115.61 246.007 113.65 245.4 111.177 245.4C108.89 245.4 107.07 245.89 105.717 246.87C104.364 247.85 103.687 249.133 103.687 250.72C103.687 251.98 104.084 253.03 104.877 253.87C105.717 254.663 106.744 255.317 107.957 255.83C109.217 256.297 110.944 256.833 113.137 257.44C115.89 258.187 118.13 258.933 119.857 259.68C121.584 260.38 123.054 261.453 124.267 262.9C125.527 264.347 126.18 266.237 126.227 268.57C126.227 270.67 125.644 272.56 124.477 274.24C123.31 275.92 121.654 277.25 119.507 278.23C117.407 279.163 114.98 279.63 112.227 279.63ZM151.949 279.63C148.356 279.63 145.089 278.813 142.149 277.18C139.256 275.547 136.969 273.237 135.289 270.25C133.656 267.217 132.839 263.717 132.839 259.75C132.839 255.83 133.679 252.377 135.359 249.39C137.086 246.357 139.419 244.047 142.359 242.46C145.299 240.827 148.589 240.01 152.229 240.01C155.869 240.01 159.159 240.827 162.099 242.46C165.039 244.047 167.349 246.333 169.029 249.32C170.756 252.307 171.619 255.783 171.619 259.75C171.619 263.717 170.732 267.217 168.959 270.25C167.232 273.237 164.876 275.547 161.889 277.18C158.902 278.813 155.589 279.63 151.949 279.63ZM151.949 274.03C154.236 274.03 156.382 273.493 158.389 272.42C160.396 271.347 162.006 269.737 163.219 267.59C164.479 265.443 165.109 262.83 165.109 259.75C165.109 256.67 164.502 254.057 163.289 251.91C162.076 249.763 160.489 248.177 158.529 247.15C156.569 246.077 154.446 245.54 152.159 245.54C149.826 245.54 147.679 246.077 145.719 247.15C143.806 248.177 142.266 249.763 141.099 251.91C139.932 254.057 139.349 256.67 139.349 259.75C139.349 262.877 139.909 265.513 141.029 267.66C142.196 269.807 143.736 271.417 145.649 272.49C147.562 273.517 149.662 274.03 151.949 274.03ZM195.604 245.89H187.554V279H181.184V245.89H176.214V240.64H181.184V237.91C181.184 233.617 182.281 230.49 184.474 228.53C186.714 226.523 190.284 225.52 195.184 225.52V230.84C192.384 230.84 190.401 231.4 189.234 232.52C188.114 233.593 187.554 235.39 187.554 237.91V240.64H195.604V245.89ZM210.802 245.89V268.5C210.802 270.367 211.198 271.697 211.992 272.49C212.785 273.237 214.162 273.61 216.122 273.61H220.812V279H215.072C211.525 279 208.865 278.183 207.092 276.55C205.318 274.917 204.432 272.233 204.432 268.5V245.89H199.462V240.64H204.432V230.98H210.802V240.64H220.812V245.89H210.802ZM279.63 240.64L267.66 279H261.08L251.84 248.55L242.6 279H236.02L223.98 240.64H230.49L239.31 272.84L248.83 240.64H255.34L264.65 272.91L273.33 240.64H279.63ZM283.572 259.68C283.572 255.76 284.365 252.33 285.952 249.39C287.538 246.403 289.708 244.093 292.462 242.46C295.262 240.827 298.365 240.01 301.772 240.01C305.132 240.01 308.048 240.733 310.522 242.18C312.995 243.627 314.838 245.447 316.052 247.64V240.64H322.492V279H316.052V271.86C314.792 274.1 312.902 275.967 310.382 277.46C307.908 278.907 305.015 279.63 301.702 279.63C298.295 279.63 295.215 278.79 292.462 277.11C289.708 275.43 287.538 273.073 285.952 270.04C284.365 267.007 283.572 263.553 283.572 259.68ZM316.052 259.75C316.052 256.857 315.468 254.337 314.302 252.19C313.135 250.043 311.548 248.41 309.542 247.29C307.582 246.123 305.412 245.54 303.032 245.54C300.652 245.54 298.482 246.1 296.522 247.22C294.562 248.34 292.998 249.973 291.832 252.12C290.665 254.267 290.082 256.787 290.082 259.68C290.082 262.62 290.665 265.187 291.832 267.38C292.998 269.527 294.562 271.183 296.522 272.35C298.482 273.47 300.652 274.03 303.032 274.03C305.412 274.03 307.582 273.47 309.542 272.35C311.548 271.183 313.135 269.527 314.302 267.38C315.468 265.187 316.052 262.643 316.052 259.75ZM339.626 246.87C340.746 244.677 342.333 242.973 344.386 241.76C346.486 240.547 349.03 239.94 352.016 239.94V246.52H350.336C343.196 246.52 339.626 250.393 339.626 258.14V279H333.256V240.64H339.626V246.87ZM394.369 258.35C394.369 259.563 394.299 260.847 394.159 262.2H363.499C363.733 265.98 365.016 268.943 367.349 271.09C369.729 273.19 372.599 274.24 375.959 274.24C378.713 274.24 380.999 273.61 382.819 272.35C384.686 271.043 385.993 269.317 386.739 267.17H393.599C392.573 270.857 390.519 273.867 387.439 276.2C384.359 278.487 380.533 279.63 375.959 279.63C372.319 279.63 369.053 278.813 366.159 277.18C363.313 275.547 361.073 273.237 359.439 270.25C357.806 267.217 356.989 263.717 356.989 259.75C356.989 255.783 357.783 252.307 359.369 249.32C360.956 246.333 363.173 244.047 366.019 242.46C368.913 240.827 372.226 240.01 375.959 240.01C379.599 240.01 382.819 240.803 385.619 242.39C388.419 243.977 390.566 246.17 392.059 248.97C393.599 251.723 394.369 254.85 394.369 258.35ZM387.789 257.02C387.789 254.593 387.253 252.517 386.179 250.79C385.106 249.017 383.636 247.687 381.769 246.8C379.949 245.867 377.919 245.4 375.679 245.4C372.459 245.4 369.706 246.427 367.419 248.48C365.179 250.533 363.896 253.38 363.569 257.02H387.789Z" fill="white"/>
<path d="M224 1H161L115 85H180L224 1Z" fill="#303030" stroke="#303030"/>
<path d="M230 202L182 109L181.5 108L150 169L167 202H230Z" fill="white" stroke="white"/>
<path d="M282 85L237 2L206 62L218 85H282Z" fill="white" stroke="white"/>
<path d="M261 169L294 105L348 202H279L261 169Z" fill="white" stroke="white"/>
<path d="M174 96H109L49 202H118L174 96Z" fill="#303030" stroke="#303030"/>
<path d="M285 96H223L206 129L237 189L285 96Z" fill="#303030" stroke="#303030"/>
</svg>
