<?xml version="1.0" standalone="no"?>
<!DOCTYPE svg PUBLIC "-//W3C//DTD SVG 20010904//EN"
 "http://www.w3.org/TR/2001/REC-SVG-20010904/DTD/svg10.dtd">
<svg version="1.0" xmlns="http://www.w3.org/2000/svg"
 width="300.000000pt" height="300.000000pt" viewBox="0 0 300.000000 300.000000"
 preserveAspectRatio="xMidYMid meet">
<metadata>
Created by potrace 1.11, written by Peter Selinger 2001-2013
</metadata>
<g transform="translate(0.000000,300.000000) scale(0.100000,-0.100000)"
fill="#000000" stroke="none">
<path d="M1140 2439 c0 -3 -32 -64 -71 -135 -40 -71 -85 -154 -102 -184 -79
-147 -212 -390 -234 -427 l-25 -43 310 0 310 0 45 83 c24 45 70 132 102 192
32 61 85 162 118 225 33 63 79 152 103 197 24 45 44 85 44 90 0 4 -135 8 -300
8 -165 0 -300 -3 -300 -6z"/>
<path d="M1852 2424 c-37 -70 -132 -254 -203 -392 l-83 -163 53 -105 c29 -58
58 -107 64 -110 7 -2 146 -3 309 -2 l296 3 -50 90 c-45 83 -78 144 -176 325
-19 36 -42 79 -52 95 -15 26 -103 189 -136 254 -11 22 -13 22 -22 5z"/>
<path d="M661 1550 c-8 -5 -33 -47 -73 -120 -38 -68 -66 -118 -108 -190 -21
-36 -51 -90 -68 -120 -25 -47 -127 -227 -273 -483 -21 -38 -39 -72 -39 -77 0
-4 146 -8 325 -8 l325 1 166 316 c92 174 182 343 199 376 115 217 155 294 155
301 0 9 -596 13 -609 4z"/>
<path d="M1701 1505 c-15 -27 -52 -98 -82 -157 l-54 -107 92 -178 c178 -345
198 -383 204 -383 3 0 30 46 59 103 29 56 83 161 120 232 37 72 115 222 173
335 l105 205 -294 0 -295 0 -28 -50z"/>
<path d="M2381 1453 c-22 -44 -165 -321 -230 -449 l-72 -141 34 -59 c18 -32
57 -103 86 -156 l53 -97 329 1 c180 1 327 4 325 7 -8 13 -285 510 -316 566
-18 33 -40 74 -50 90 -10 17 -30 53 -45 80 -15 28 -43 78 -62 113 -19 34 -37
62 -39 62 -2 0 -7 -8 -13 -17z"/>
<path d="M1252 1278 c-45 -90 -112 -219 -147 -287 l-64 -123 80 -158 80 -158
292 0 c161 0 295 2 300 5 4 2 -24 64 -62 136 -37 73 -110 213 -161 312 -172
334 -225 435 -230 435 -3 0 -42 -73 -88 -162z"/>
</g>
</svg>
